<svg width="25" height="24" viewBox="0 0 25 24" fill="none" xmlns="http://www.w3.org/2000/svg">
<path d="M0.98291 3.66233C0.98291 2.19197 2.17488 1 3.64524 1H21.2576C22.728 1 23.9199 2.19197 23.9199 3.66233V15.5404C23.9199 17.0108 22.728 18.2028 21.2576 18.2028H10.4035V16.6522C10.421 16.6231 10.4382 16.5938 10.4553 16.5644H21.2576C21.8231 16.5644 22.2816 16.106 22.2816 15.5404V3.66233C22.2816 3.09681 21.8231 2.63836 21.2576 2.63836H3.64524C3.07972 2.63836 2.62127 3.09681 2.62127 3.66233V8.73016C1.98889 9.09597 1.68506 9.30882 0.98291 9.67217V3.66233ZM5.89798 6.73425C5.89798 6.28183 6.26474 5.91507 6.71716 5.91507H18.1857C18.6381 5.91507 19.0048 6.28183 19.0048 6.73425C19.0048 7.18667 18.6381 7.55343 18.1857 7.55343H6.71716C6.26474 7.55343 5.89798 7.18667 5.89798 6.73425ZM13.2706 11.6493C12.8182 11.6493 12.4514 12.0161 12.4514 12.4685C12.4514 12.9209 12.8182 13.2877 13.2706 13.2877H18.1857C18.6381 13.2877 19.0048 12.9209 19.0048 12.4685C19.0048 12.0161 18.6381 11.6493 18.1857 11.6493H13.2706Z" fill="black" stroke="black" stroke-width="0.4" stroke-linecap="round"/>
<path d="M9.01097 14.7974C9.01097 17.2857 6.99379 19.3028 4.50548 19.3028C2.01717 19.3028 0 17.2857 0 14.7974C0 12.309 2.01717 10.2919 4.50548 10.2919C6.99379 10.2919 9.01097 12.309 9.01097 14.7974ZM8.19179 19.1898C7.19504 20.0272 5.90916 20.5316 4.50548 20.5316C3.10181 20.5316 1.81593 20.0272 0.819179 19.1898V22.5795C0.819179 23.2222 1.52546 23.6146 2.07113 23.275L4.50548 21.7603L6.93984 23.275C7.48551 23.6146 8.19179 23.2222 8.19179 22.5795V19.1898Z" fill="black"/>
</svg>
