<svg width="28" height="28" viewBox="0 0 28 28" fill="none" xmlns="http://www.w3.org/2000/svg">
<path d="M6.20536 1.7998C3.77224 1.7998 1.7998 3.77224 1.7998 6.20536V21.7942C1.7998 24.2274 3.77224 26.1998 6.20536 26.1998H21.7942C24.2274 26.1998 26.1998 24.2274 26.1998 21.7942V6.20536C26.1998 3.77224 24.2274 1.7998 21.7942 1.7998H6.20536ZM21.1572 10.3136L12.0021 19.458C11.605 19.8547 10.9616 19.8545 10.5647 19.4576L6.84266 15.7353C6.44564 15.3383 6.44566 14.6946 6.84271 14.2976C7.23975 13.9005 7.88347 13.9006 8.28049 14.2976L11.2841 17.3013L19.7202 8.87494C20.1175 8.47814 20.7612 8.47851 21.158 8.87577C21.5548 9.27304 21.5544 9.91675 21.1572 10.3136Z" fill="#211D70"/>
</svg>
