<svg width="28" height="24" viewBox="0 0 28 24" fill="none" xmlns="http://www.w3.org/2000/svg">
<path d="M9.13463 16.6712C9.96684 16.6712 10.6415 15.9966 10.6415 15.1644C10.6415 14.3322 9.96684 13.6575 9.13463 13.6575C8.30242 13.6575 7.62778 14.3322 7.62778 15.1644C7.62778 15.9966 8.30242 16.6712 9.13463 16.6712ZM15.7648 15.1644C15.7648 15.9966 15.0901 16.6712 14.2579 16.6712C13.4257 16.6712 12.7511 15.9966 12.7511 15.1644C12.7511 14.3322 13.4257 13.6575 14.2579 13.6575C15.0901 13.6575 15.7648 14.3322 15.7648 15.1644ZM19.3812 16.6712C20.2134 16.6712 20.8881 15.9966 20.8881 15.1644C20.8881 14.3322 20.2134 13.6575 19.3812 13.6575C18.549 13.6575 17.8744 14.3322 17.8744 15.1644C17.8744 15.9966 18.549 16.6712 19.3812 16.6712ZM5.66653 1.76312C6.06732 1.27973 6.66261 1 7.29054 1H21.2261C21.854 1 22.4493 1.27973 22.8501 1.76313L27.1669 6.96975C27.9812 7.95189 27.2827 9.43836 26.0069 9.43836H25.1072V19.9863C25.1072 21.6507 23.758 23 22.0935 23H6.4223C4.75788 23 3.4086 21.6507 3.4086 19.9863V9.43836H2.50972C1.23393 9.43836 0.535427 7.95188 1.34972 6.96975L5.66653 1.76312ZM7.29054 2.80822C7.20084 2.80822 7.11579 2.84818 7.05854 2.91724L3.15107 7.63014H25.3655L21.4581 2.91724C21.4009 2.84818 21.3158 2.80822 21.2261 2.80822H7.29054ZM5.21682 9.43836V19.9863C5.21682 20.6521 5.75654 21.1918 6.4223 21.1918H22.0935C22.7593 21.1918 23.299 20.6521 23.299 19.9863V9.43836H5.21682Z" fill="black" stroke="black" stroke-width="0.6"/>
</svg>
