<svg width="24" height="24" viewBox="0 0 24 24" fill="none" xmlns="http://www.w3.org/2000/svg">
<path d="M1 3.75C1 2.23122 2.23122 1 3.75 1H15.25C16.7688 1 18 2.23122 18 3.75V15H23V19.25C23 21.3211 21.3211 23 19.25 23H4.75C2.67893 23 1 21.3211 1 19.25V3.75ZM18 21.5H19.25C20.4926 21.5 21.5 20.4926 21.5 19.25V16.5H18V21.5ZM3.75 2.5C3.05964 2.5 2.5 3.05964 2.5 3.75V19.25C2.5 20.4926 3.50736 21.5 4.75 21.5H16.5V3.75C16.5 3.05964 15.9404 2.5 15.25 2.5H3.75ZM5.75 6C5.33579 6 5 6.33579 5 6.75C5 7.16421 5.33579 7.5 5.75 7.5H13.25C13.6642 7.5 14 7.16421 14 6.75C14 6.33579 13.6642 6 13.25 6H5.75ZM5 11.75C5 11.3358 5.33579 11 5.75 11H13.25C13.6642 11 14 11.3358 14 11.75C14 12.1642 13.6642 12.5 13.25 12.5H5.75C5.33579 12.5 5 12.1642 5 11.75ZM5.75 16C5.33579 16 5 16.3358 5 16.75C5 17.1642 5.33579 17.5 5.75 17.5H9.25C9.66421 17.5 10 17.1642 10 16.75C10 16.3358 9.66421 16 9.25 16H5.75Z" fill="black" stroke="black" stroke-width="0.8" stroke-linecap="round"/>
</svg>
