<svg width="27" height="20" viewBox="0 0 27 20" fill="none" xmlns="http://www.w3.org/2000/svg">
<path d="M23.2467 1C24.8041 1 26.0667 2.18331 26.0667 3.64299V17.157C26.0667 18.6166 24.8041 19.8 23.2467 19.8H3.82C2.26256 19.8 1 18.6166 1 17.157V3.64299C1 2.18331 2.26256 1 3.82 1H23.2467ZM23.2467 2.76199H3.82C3.30086 2.76199 2.88 3.15643 2.88 3.64299V17.157C2.88 17.6436 3.30086 18.038 3.82 18.038H23.2467C23.7658 18.038 24.1867 17.6436 24.1867 17.157V3.64299C24.1867 3.15643 23.7658 2.76199 23.2467 2.76199ZM10.7133 10.9846C11.2325 10.9846 11.6533 11.3791 11.6533 11.8656V12.4444L11.6434 12.5719C11.4394 13.8792 10.2717 14.5097 8.51994 14.5097C6.768 14.5097 5.60034 13.8786 5.39653 12.5705L5.38667 12.4433V11.8656C5.38667 11.3791 5.80752 10.9846 6.32667 10.9846H10.7133ZM15.1029 11.5674H20.74C21.2591 11.5674 21.68 11.9618 21.68 12.4484C21.68 12.8944 21.3263 13.263 20.8676 13.3214L20.74 13.3294H15.1029C14.5838 13.3294 14.1629 12.935 14.1629 12.4484C14.1629 12.0024 14.5164 11.6337 14.9753 11.5755L15.1029 11.5674ZM8.52 6.28854C9.55827 6.28854 10.4 7.0774 10.4 8.05056C10.4 9.02365 9.55827 9.81243 8.52 9.81243C7.48173 9.81243 6.64004 9.02365 6.64004 8.05056C6.64004 7.0774 7.48173 6.28854 8.52 6.28854ZM15.1029 7.46064H20.74C21.2591 7.46064 21.68 7.85508 21.68 8.34164C21.68 8.78766 21.3263 9.15627 20.8676 9.21465L20.74 9.22264H15.1029C14.5838 9.22264 14.1629 8.82818 14.1629 8.34164C14.1629 7.89562 14.5164 7.52702 14.9753 7.46869L15.1029 7.46064Z" fill="black" stroke="black" stroke-width="0.4"/>
</svg>
