<svg width="22" height="24" viewBox="0 0 22 24" fill="none" xmlns="http://www.w3.org/2000/svg">
<path d="M9.59191 1.49605C10.4146 0.835953 11.5854 0.835952 12.4081 1.49605L20.1581 7.71438C20.6903 8.14142 21 8.78693 21 9.46931V20.7497C21 21.9923 19.9926 22.9997 18.75 22.9997H15.75C14.5074 22.9997 13.5 21.9923 13.5 20.7497V14.7497C13.5 14.3355 13.1642 13.9997 12.75 13.9997H9.25C8.83579 13.9997 8.5 14.3355 8.5 14.7497V20.7497C8.5 21.9923 7.49264 22.9997 6.25 22.9997H3.25C2.00736 22.9997 1 21.9923 1 20.7497V9.46931C1 8.78693 1.30967 8.14142 1.84191 7.71438L9.59191 1.49605ZM11.4694 2.666C11.1951 2.44597 10.8049 2.44597 10.5306 2.666L2.78064 8.88433C2.60322 9.02668 2.5 9.24185 2.5 9.46931V20.7497C2.5 21.1639 2.83579 21.4997 3.25 21.4997H6.25C6.66421 21.4997 7 21.1639 7 20.7497V14.7497C7 13.5071 8.00736 12.4997 9.25 12.4997H12.75C13.9926 12.4997 15 13.5071 15 14.7497V20.7497C15 21.1639 15.3358 21.4997 15.75 21.4997H18.75C19.1642 21.4997 19.5 21.1639 19.5 20.7497V9.46931C19.5 9.24185 19.3968 9.02668 19.2194 8.88433L11.4694 2.666Z" fill="black" stroke="black" stroke-width="0.8"/>
</svg>
