<svg width="24" height="24" viewBox="0 0 24 24" fill="none" xmlns="http://www.w3.org/2000/svg">
<path d="M12 1C18.0752 1 23 5.92487 23 12C23 18.0752 18.0752 23 12 23C5.92487 23 1 18.0752 1 12C1 5.92487 5.92487 1 12 1ZM12 2.64975C6.83601 2.64975 2.64975 6.83601 2.64975 12C2.64975 17.1641 6.83601 21.3503 12 21.3503C17.1641 21.3503 21.3503 17.1641 21.3503 12C21.3503 6.83601 17.1641 2.64975 12 2.64975ZM11.996 10.3492C12.4136 10.349 12.7589 10.659 12.8138 11.0617L12.8214 11.1735L12.8254 17.2243C12.8257 17.6799 12.4566 18.0495 12.001 18.0498C11.5834 18.0501 11.2381 17.7399 11.1832 17.3374L11.1756 17.2254L11.1716 11.1746C11.1714 10.7191 11.5404 10.3495 11.996 10.3492ZM12.0005 6.50225C12.6071 6.50225 13.0989 6.99401 13.0989 7.60062C13.0989 8.20722 12.6071 8.69898 12.0005 8.69898C11.3939 8.69898 10.9022 8.20722 10.9022 7.60062C10.9022 6.99401 11.3939 6.50225 12.0005 6.50225Z" fill="#525252" stroke="#525252" stroke-width="0.6"/>
</svg>
