<svg width="28" height="28" viewBox="0 0 28 28" fill="none" xmlns="http://www.w3.org/2000/svg">
<path d="M5.75 6C3.67893 6 2 7.67893 2 9.75V21.25C2 23.3211 3.67894 25 5.75 25H22.2466C24.3177 25 25.9966 23.3211 25.9966 21.25V9.75C25.9966 7.67893 24.3177 6 22.2466 6H5.75ZM3.5 9.75C3.5 8.50736 4.50736 7.5 5.75 7.5H22.2466C23.4893 7.5 24.4966 8.50736 24.4966 9.75V10.5289L13.9959 15.9074L3.5 10.5314V9.75ZM3.5 12.2167L13.654 17.4175C13.8686 17.5275 14.1231 17.5275 14.3378 17.4175L24.4966 12.2142V21.25C24.4966 22.4926 23.4893 23.5 22.2466 23.5H5.75C4.50736 23.5 3.5 22.4926 3.5 21.25V12.2167Z" fill="#211D70" stroke="#211D70" stroke-width="0.8" stroke-linecap="round" stroke-linejoin="round"/>
</svg>
