<svg width="22" height="26" viewBox="0 0 22 26" fill="none" xmlns="http://www.w3.org/2000/svg">
<path d="M18 15C19.6569 15 21 16.3431 21 18V18.7146C21 22.2924 16.7895 25 11 25C5.21053 25 1 22.4333 1 18.7146V18C1 16.3431 2.34315 15 4 15H18ZM18 16.5H4C3.2203 16.5 2.57955 17.0949 2.50687 17.8555L2.5 18V18.7146C2.5 21.389 5.88879 23.5 11 23.5C15.926 23.5 19.3548 21.3951 19.4955 18.876L19.5 18.7146V18C19.5 17.2203 18.9051 16.5796 18.1445 16.5069L18 16.5ZM11 1C14.3137 1 17 3.68629 17 7C17 10.3137 14.3137 13 11 13C7.68629 13 5 10.3137 5 7C5 3.68629 7.68629 1 11 1ZM11 2.5C8.51472 2.5 6.5 4.51472 6.5 7C6.5 9.48528 8.51472 11.5 11 11.5C13.4853 11.5 15.5 9.48528 15.5 7C15.5 4.51472 13.4853 2.5 11 2.5Z" fill="black" stroke="black" stroke-width="0.8"/>
</svg>
