<svg width="27" height="23" viewBox="0 0 27 23" fill="none" xmlns="http://www.w3.org/2000/svg">
<path d="M11.3959 1.64096C12.7809 0.786346 14.5297 0.786346 15.9148 1.64096L25.95 7.83295C26.1711 7.96938 26.3071 8.20938 26.3106 8.46917C26.314 8.72896 26.1843 8.97247 25.9669 9.11466L21.7547 11.8691V18.6034C21.7547 18.903 21.5904 19.0886 21.3974 19.2771C21.3016 19.3707 21.163 19.5005 20.9833 19.6545C20.6246 19.962 20.0998 20.368 19.4245 20.7732C18.0751 21.5828 16.1059 22.4 13.6553 22.4C11.2047 22.4 9.23549 21.5828 7.88614 20.7732C7.21087 20.368 6.68607 19.962 6.32729 19.6545C6.14768 19.5005 6.009 19.3707 5.9132 19.2771C5.71971 19.0881 5.55591 18.9059 5.55591 18.6034V11.8691L2.51864 9.88295V16.0723C2.51864 16.4917 2.17868 16.8317 1.75932 16.8317C1.33996 16.8317 1 16.4917 1 16.0723V8.73226C1 8.68903 1.00361 8.64664 1.01055 8.60539C1.00304 8.56081 0.99946 8.51525 1.00007 8.46917C1.00348 8.20938 1.13949 7.96938 1.3606 7.83295L11.3959 1.64096ZM7.07455 12.8622V18.2863C7.13964 18.347 7.22016 18.4196 7.3156 18.5015C7.62123 18.7634 8.07721 19.1168 8.66747 19.4709C9.84919 20.18 11.55 20.8814 13.6553 20.8814C15.7606 20.8814 17.4614 20.18 18.6432 19.4709C19.2334 19.1168 19.6894 18.7634 19.995 18.5015C20.0905 18.4196 20.171 18.347 20.2361 18.2863V12.8622L16.0102 15.6255C14.5796 16.561 12.731 16.561 11.3004 15.6255L7.07455 12.8622ZM15.1173 2.93338C14.2211 2.38039 13.0895 2.38039 12.1933 2.93338L3.17518 8.49776L12.1316 14.3545C13.0572 14.9599 14.2534 14.9599 15.1791 14.3545L24.1354 8.49776L15.1173 2.93338Z" fill="black" stroke="black" stroke-width="0.7" stroke-linecap="round"/>
</svg>
