<svg width="24" height="24" viewBox="0 0 24 24" fill="none" xmlns="http://www.w3.org/2000/svg">
<path d="M10.7013 1.90826C11.2332 0.830548 12.7699 0.83055 13.3018 1.90826L15.9928 7.36078L22.01 8.23513C23.1993 8.40795 23.6742 9.86951 22.8136 10.7084L18.4595 14.9526L19.4874 20.9455C19.6905 22.13 18.4473 23.0333 17.3835 22.474L12.0015 19.6446L6.61958 22.474C5.55582 23.0333 4.31254 22.13 4.5157 20.9455L5.54357 14.9526L1.18947 10.7084C0.328867 9.86951 0.803758 8.40795 1.99308 8.23513L8.01029 7.36078L10.7013 1.90826ZM12.0015 2.66295L9.34377 8.0482C9.13256 8.47616 8.72428 8.77278 8.25201 8.84141L2.30903 9.70497L6.60941 13.8968C6.95115 14.2299 7.1071 14.7099 7.02642 15.1802L6.01124 21.0992L11.3268 18.3047C11.7492 18.0826 12.2539 18.0826 12.6763 18.3047L17.9918 21.0992L16.9767 15.1802C16.896 14.7099 17.0519 14.2299 17.3937 13.8968L21.6941 9.70497L15.7511 8.84141C15.2788 8.77278 14.8705 8.47616 14.6593 8.0482L12.0015 2.66295Z" fill="black" stroke="black" stroke-width="0.8"/>
</svg>
