<svg width="29" height="19" viewBox="0 0 29 19" fill="none" xmlns="http://www.w3.org/2000/svg">
<path d="M16.7416 17.4145L15.362 16.0349L16.7895 14.6075L18.1691 15.9871C18.6947 16.5127 19.5468 16.5127 20.0724 15.9871L25.4078 10.6516C25.9334 10.1261 25.9334 9.27394 25.4078 8.74836L20.0724 3.41291C19.5468 2.88733 18.6947 2.88733 18.1691 3.41291L16.7895 4.79254L15.362 3.36509L16.7416 1.98545C18.0556 0.671516 20.1859 0.671515 21.4998 1.98545L26.8353 7.3209C28.1492 8.63484 28.1492 10.7652 26.8353 12.0791L21.4998 17.4145C20.1859 18.7285 18.0556 18.7285 16.7416 17.4145ZM7.3209 1.98545L1.98545 7.32091C0.671515 8.63484 0.671516 10.7652 1.98545 12.0791L7.32091 17.4145C8.63484 18.7285 10.7652 18.7285 12.0791 17.4145L17.4145 12.0791C18.7285 10.7652 18.7285 8.63484 17.4145 7.3209L12.0791 1.98545C10.7652 0.671515 8.63484 0.671516 7.3209 1.98545ZM3.41291 8.74836L8.74836 3.41291C9.27394 2.88733 10.1261 2.88733 10.6516 3.41291L15.9871 8.74836C16.5127 9.27394 16.5127 10.1261 15.9871 10.6516L10.6516 15.9871C10.1261 16.5127 9.27394 16.5127 8.74836 15.9871L3.41291 10.6516C2.88733 10.1261 2.88733 9.27394 3.41291 8.74836Z" fill="black" stroke="black" stroke-width="0.4"/>
</svg>
