<svg width="24" height="26" viewBox="0 0 24 26" fill="none" xmlns="http://www.w3.org/2000/svg">
<path d="M8.69043 4.26692C8.85221 4.64823 8.67423 5.08849 8.29292 5.25027C4.88678 6.69533 2.5 10.0698 2.5 14C2.5 19.2467 6.75329 23.5 12 23.5C17.2467 23.5 21.5 19.2467 21.5 14C21.5 10.0698 19.1132 6.69533 15.7071 5.25027C15.3258 5.08849 15.1478 4.64823 15.3096 4.26692C15.4713 3.8856 15.9116 3.70762 16.2929 3.8694C20.2336 5.54125 23 9.44671 23 14C23 20.0751 18.0751 25 12 25C5.92487 25 1 20.0751 1 14C1 9.44671 3.76636 5.54125 7.70708 3.8694C8.0884 3.70762 8.52866 3.8856 8.69043 4.26692ZM12 1C12.4142 1 12.75 1.33579 12.75 1.75V11.25C12.75 11.6642 12.4142 12 12 12C11.5858 12 11.25 11.6642 11.25 11.25V1.75C11.25 1.33579 11.5858 1 12 1Z" fill="#ED1C24" stroke="#ED1C24" stroke-width="0.8" stroke-linecap="round"/>
</svg>
