<svg width="25" height="18" viewBox="0 0 25 18" fill="none" xmlns="http://www.w3.org/2000/svg">
<path d="M22.6393 1C23.7853 1 24.7144 1.92901 24.7144 3.07495V5.75497C24.7144 6.21779 24.3595 6.60327 23.8982 6.6413C22.5221 6.75477 21.4536 7.90947 21.4536 9.3C21.4536 10.6905 22.5221 11.8452 23.8982 11.9587C24.3595 11.9967 24.7144 12.3822 24.7144 12.845V15.525C24.7144 16.671 23.7853 17.6 22.6393 17.6H3.075C1.92901 17.6 1 16.671 1 15.5249L1.00035 12.8448C1.00041 12.3821 1.35529 11.9968 1.81643 11.9587C3.19242 11.845 4.26071 10.6904 4.26071 9.3C4.26071 7.90961 3.19242 6.75498 1.81643 6.64133C1.35529 6.60324 1.00041 6.21789 1.00035 5.75518L1 3.075C1 1.92901 1.92901 1 3.075 1H22.6393ZM22.9358 5.01334V3.075C22.9358 2.91129 22.803 2.77857 22.6393 2.77857H3.075C2.91129 2.77857 2.77857 2.91129 2.77857 3.07489L2.77882 5.01344C4.66757 5.53424 6.03929 7.26531 6.03929 9.3C6.03929 11.3347 4.66757 13.0658 2.77882 13.5866L2.77857 15.525C2.77857 15.6887 2.91129 15.8214 3.075 15.8214H22.6393C22.803 15.8214 22.9358 15.6887 22.9358 15.5249V13.5867C21.0469 13.066 19.675 11.3348 19.675 9.3C19.675 7.34655 20.9394 5.67299 22.7117 5.08157L22.9358 5.01334Z" fill="black" stroke="black" stroke-width="0.4"/>
</svg>
