<svg width="18" height="26" viewBox="0 0 18 26" fill="none" xmlns="http://www.w3.org/2000/svg">
<path d="M9.97996 7.15488L10.0731 7.34388L10.2816 7.37401L12.7243 7.727L10.9576 9.44846L10.807 9.59524L10.8425 9.80254L11.2596 12.2351L9.07586 11.0849L8.88946 10.9867L8.70305 11.0849L6.51937 12.235L6.93851 9.80287L6.97429 9.59524L6.8233 9.44829L5.05461 7.72698L7.49719 7.37401L7.70571 7.34388L7.79881 7.15488L8.88939 4.94091L9.97996 7.15488ZM12.8349 7.61919L12.8349 7.61921L12.8349 7.61919ZM11.3962 12.307L11.3961 12.307C11.3962 12.307 11.3963 12.307 11.3963 12.3071L11.3962 12.307ZM4.94382 7.61916C4.94386 7.6192 4.9439 7.61923 4.94394 7.61927L4.94383 7.61917L4.94382 7.61916ZM4.90177 7.74906C4.90171 7.74907 4.90165 7.74908 4.9016 7.74909L4.90161 7.74909L4.90177 7.74906ZM2.93901 15.1096L2.93898 14.9464L2.82473 14.8298C1.32439 13.2984 0.4 11.2022 0.4 8.88933C0.4 4.2008 4.2008 0.4 8.88933 0.4C13.5779 0.4 17.3787 4.2008 17.3787 8.88933C17.3787 11.2022 16.4542 13.2984 14.9539 14.8298L14.8396 14.9464L14.8396 15.1096L14.8378 24.4458V24.4459C14.8378 24.8613 14.4003 25.1194 14.0458 24.9443L13.9566 24.89L9.11842 21.4844L8.88813 21.3223L8.65787 21.4844L3.81136 24.8975C3.47166 25.1367 3.00872 24.9276 2.94774 24.5368L2.94082 24.4326L2.93901 15.1096ZM13.7332 16.5899L13.7333 15.8965L13.133 16.2436C11.8848 16.9654 10.436 17.3787 8.88933 17.3787C7.34264 17.3787 5.89376 16.9654 4.64563 16.2436L4.04537 15.8965L4.0454 16.5899L4.04568 22.6103L4.04571 23.3812L4.67599 22.9373L8.5699 20.1951L8.56992 20.195C8.73293 20.0802 8.94269 20.0634 9.11926 20.1449L9.21854 20.2039L13.1027 22.9379L13.7329 23.3814L13.733 22.6108L13.7332 16.5899ZM8.88933 1.50486C4.81099 1.50486 1.50486 4.81099 1.50486 8.88933C1.50486 12.9677 4.81099 16.2738 8.88933 16.2738C12.9677 16.2738 16.2738 12.9677 16.2738 8.88933C16.2738 4.81099 12.9677 1.50486 8.88933 1.50486Z" fill="black" stroke="black" stroke-width="0.8"/>
</svg>
