<svg width="26" height="25" viewBox="0 0 26 25" fill="none" xmlns="http://www.w3.org/2000/svg">
<path d="M8.20021 17.8C8.86295 17.8 9.40021 17.2627 9.40021 16.6C9.40021 15.9373 8.86295 15.4 8.20021 15.4C7.53747 15.4 7.00021 15.9373 7.00021 16.6C7.00021 17.2627 7.53747 17.8 8.20021 17.8ZM18.9999 16.6C18.9999 17.2627 18.4627 17.8 17.7999 17.8C17.1372 17.8 16.5999 17.2627 16.5999 16.6C16.5999 15.9373 17.1372 15.4 17.7999 15.4C18.4627 15.4 18.9999 15.9373 18.9999 16.6ZM11.5002 4.6C11.0032 4.6 10.6002 5.00294 10.6002 5.5C10.6002 5.99706 11.0032 6.4 11.5002 6.4H14.5002C14.9973 6.4 15.4002 5.99706 15.4002 5.5C15.4002 5.00294 14.9973 4.6 14.5002 4.6H11.5002ZM7.90021 1C5.41493 1 3.40021 3.01472 3.40021 5.5V10H1.9C1.40294 10 1 10.4029 1 10.9C1 11.3971 1.40294 11.8 1.9 11.8H3.40021V22.3C3.40021 23.4598 4.34041 24.4 5.50021 24.4H7.30021C8.46001 24.4 9.40021 23.4598 9.40021 22.3V20.8H16.6002V22.3C16.6002 23.4598 17.5404 24.4 18.7002 24.4H20.5002C21.66 24.4 22.6002 23.4598 22.6002 22.3V11.8H24.073C24.57 11.8 24.973 11.3971 24.973 10.9C24.973 10.4029 24.57 10 24.073 10H22.6002V5.5C22.6002 3.01472 20.5855 1 18.1002 1H7.90021ZM20.8002 20.8V22.3C20.8002 22.4657 20.6659 22.6 20.5002 22.6H18.7002C18.5345 22.6 18.4002 22.4657 18.4002 22.3V20.8H20.8002ZM20.8002 19H5.20021V14.2H20.8002V19ZM5.20021 22.3V20.8H7.60021V22.3C7.60021 22.4657 7.46589 22.6 7.30021 22.6H5.50021C5.33452 22.6 5.20021 22.4657 5.20021 22.3ZM5.20021 5.5C5.20021 4.00883 6.40904 2.8 7.90021 2.8H18.1002C19.5914 2.8 20.8002 4.00883 20.8002 5.5V12.4H5.20021V5.5Z" fill="black" stroke="black" stroke-width="0.3" stroke-linecap="round" stroke-linejoin="round"/>
</svg>
