<svg width="16" height="22" viewBox="0 0 16 22" fill="none" xmlns="http://www.w3.org/2000/svg">
<mask id="path-1-inside-1_0_1" fill="white">
<path d="M0 10.8181L15 0.583252V21.0529L0 10.8181Z"/>
</mask>
<path d="M0 10.8181L15 0.583252V21.0529L0 10.8181Z" fill="white"/>
<path d="M0 10.8181L-0.563621 9.99206L-1.77424 10.8181L-0.563621 11.6441L0 10.8181ZM15 0.583252H16V-1.30968L14.4364 -0.242781L15 0.583252ZM15 21.0529L14.4364 21.879L16 22.9459V21.0529H15ZM0.563621 11.6441L15.5636 1.40929L14.4364 -0.242781L-0.563621 9.99206L0.563621 11.6441ZM14 0.583252V21.0529H16V0.583252H14ZM15.5636 20.2269L0.563621 9.99206L-0.563621 11.6441L14.4364 21.879L15.5636 20.2269Z" fill="black" mask="url(#path-1-inside-1_0_1)"/>
<rect x="14" width="4" height="22" fill="white"/>
</svg>
