<svg width="25" height="24" viewBox="0 0 25 24" fill="none" xmlns="http://www.w3.org/2000/svg">
<path d="M15.4879 1C16.2403 1 16.9394 1.38789 17.3377 2.0262L18.8116 4.38862H21.1072C22.8465 4.38862 24.2565 5.79861 24.2565 7.53793V19.6507C24.2565 21.39 22.8465 22.8 21.1072 22.8H4.14932C2.41 22.8 1 21.39 1 19.6507V7.53793C1 5.79861 2.41 4.38862 4.14932 4.38862H6.63826L7.978 2.08439C8.36833 1.41305 9.08628 1 9.86285 1H15.4879ZM15.4879 2.45353H9.86285C9.64097 2.45353 9.43345 2.55469 9.29675 2.72451L9.23457 2.81499L7.68466 5.48068C7.55455 5.70446 7.31523 5.84215 7.05638 5.84215H4.14932C3.21276 5.84215 2.45353 6.60138 2.45353 7.53793V19.6507C2.45353 20.5872 3.21276 21.3465 4.14932 21.3465H21.1072C22.0437 21.3465 22.803 20.5872 22.803 19.6507V7.53793C22.803 6.60138 22.0437 5.84215 21.1072 5.84215H18.4084C18.1576 5.84215 17.9246 5.71285 17.7918 5.50008L16.1045 2.7956C15.9717 2.58283 15.7387 2.45353 15.4879 2.45353ZM12.6282 7.78115C15.5717 7.78115 17.9579 10.1673 17.9579 13.1108C17.9579 16.0542 15.5717 18.4404 12.6282 18.4404C9.68478 18.4404 7.29863 16.0542 7.29863 13.1108C7.29863 10.1673 9.68478 7.78115 12.6282 7.78115ZM12.6282 9.23468C10.4875 9.23468 8.75216 10.9701 8.75216 13.1108C8.75216 15.2515 10.4875 16.9868 12.6282 16.9868C14.7689 16.9868 16.5043 15.2515 16.5043 13.1108C16.5043 10.9701 14.7689 9.23468 12.6282 9.23468Z" fill="black" stroke="black" stroke-width="0.8"/>
</svg>
